Coordinates
version=1
nRows=20
nColumns=38
inDegrees=no

Units are S.I. units (second, meters, Newtons, ...)
If the header above contains a line with 'inDegrees', this indicates whether rotational values are in degrees (yes) or radians (no).

endheader
time	pelvis_tilt	pelvis_list	pelvis_rotation	pelvis_tx	pelvis_ty	pelvis_tz	hip_flexion_r	hip_adduction_r	hip_rotation_r	knee_angle_r	ankle_angle_r	subtalar_angle_r	mtp_angle_r	hip_flexion_l	hip_adduction_l	hip_rotation_l	knee_angle_l	ankle_angle_l	subtalar_angle_l	mtp_angle_l	lumbar_extension	lumbar_bending	lumbar_rotation	arm_flex_r	arm_add_r	arm_rot_r	elbow_flex_r	pro_sup_r	wrist_flex_r	wrist_dev_r	arm_flex_l	arm_add_l	arm_rot_l	elbow_flex_l	pro_sup_l	wrist_flex_l	wrist_dev_l
1.69	-3.10723	0.940344	1.46765	0.598172	-0.448099	1.02061	0.959531	-0.0313641	0.0415652	0.938774	-0.262434	0	0	0.598349	-0.00330484	-0.243393	0.138684	-0.215296	0	0	0.722484	0.149498	0.288478	-0.520528	-0.229462	-0.0712133	0.448477	1.47257	0	0	-0.183624	-0.079051	-0.758283	0.199598	1.5708	0	0
1.7	-3.09968	0.936467	1.46563	0.598717	-0.458729	1.02087	0.969999	-0.0284446	0.0363978	0.896201	-0.25123	0	0	0.586501	-0.00429987	-0.247398	0.12958	-0.21808	0	0	0.727737	0.15242	0.284078	-0.526033	-0.226127	-0.0787275	0.442781	1.45067	0	0	-0.182432	-0.0790521	-0.751828	0.198558	1.5708	0	0
1.71	-3.09286	0.932452	1.46449	0.599258	-0.469378	1.02092	0.978719	-0.0259218	0.032049	0.848685	-0.244063	0	0	0.574893	-0.00474382	-0.250899	0.120572	-0.220725	0	0	0.733129	0.154972	0.280189	-0.5305	-0.223293	-0.0804379	0.435015	1.43243	0	0	-0.180659	-0.0790474	-0.745175	0.197288	1.5708	0	0
1.72	-3.08712	0.928616	1.46422	0.599777	-0.480024	1.02073	0.985385	-0.0237552	0.0287381	0.796148	-0.240881	0	0	0.563203	-0.00463229	-0.252796	0.111622	-0.223745	0	0	0.737759	0.156997	0.276954	-0.534457	-0.221047	-0.0795243	0.427434	1.41661	0	0	-0.178357	-0.0785132	-0.740029	0.196707	1.5708	0	0
1.73	-3.08212	0.925146	1.46466	0.600255	-0.490735	1.02033	0.989543	-0.0219447	0.0259475	0.738437	-0.241924	0	0	0.551465	-0.00420892	-0.253319	0.10328	-0.227976	0	0	0.741646	0.158458	0.273922	-0.537888	-0.219007	-0.0788843	0.420538	1.40115	0	0	-0.175741	-0.0776203	-0.736674	0.196692	1.5708	0	0
1.74	-3.07799	0.921414	1.46609	0.600693	-0.501468	1.01968	0.992046	-0.0208899	0.0225336	0.675731	-0.247068	0	0	0.540764	-0.00333303	-0.252379	0.0963863	-0.23257	0	0	0.745493	0.15911	0.270379	-0.54039	-0.217599	-0.0756757	0.413672	1.38874	0	0	-0.17337	-0.0772792	-0.730981	0.196491	1.5708	0	0
1.75	-3.07504	0.917983	1.46871	0.601074	-0.512271	1.01882	0.992892	-0.020698	0.0185761	0.610017	-0.255588	0	0	0.530102	-0.00167606	-0.249741	0.0900049	-0.235225	0	0	0.749005	0.158941	0.266872	-0.541875	-0.2161	-0.0710394	0.40578	1.37816	0	0	-0.170901	-0.0767687	-0.72676	0.196748	1.5708	0	0
1.76	-3.07634	0.913182	1.47636	0.601363	-0.523274	1.01793	0.993883	-0.0233888	0.0148229	0.541361	-0.267245	0	0	0.525961	0.00119639	-0.254705	0.0978555	-0.232127	0	0	0.755628	0.155373	0.263875	-0.541476	-0.213363	-0.0635462	0.393369	1.3705	0	0	-0.168668	-0.0772918	-0.724569	0.196142	1.5708	0	0
1.77	-3.07382	0.911729	1.47943	0.601669	-0.534187	1.01658	0.991076	-0.0238355	0.0100878	0.473494	-0.279683	0	0	0.512595	0.00260499	-0.249633	0.0906962	-0.226746	0	0	0.755534	0.154497	0.259845	-0.54088	-0.213447	-0.0545837	0.386117	1.36634	0	0	-0.165633	-0.0755505	-0.724226	0.198192	1.57062	0	0
1.78	-3.07229	0.911262	1.48448	0.602047	-0.545169	1.01504	0.98714	-0.0257582	0.00372771	0.407228	-0.291966	0	0	0.500298	0.00506661	-0.245544	0.0868694	-0.221735	0	0	0.753633	0.152034	0.25507	-0.539541	-0.214196	-0.0453069	0.380289	1.36454	0	0	-0.162137	-0.0734647	-0.72513	0.200794	1.56883	0	0
1.79	-3.07249	0.912128	1.4915	0.602466	-0.556319	1.01337	0.982055	-0.0290486	-0.00362946	0.342895	-0.303817	0	0	0.485807	0.0095766	-0.245313	0.0845841	-0.216948	0	0	0.749943	0.148117	0.250308	-0.537078	-0.215077	-0.0353822	0.374246	1.36454	0	0	-0.158594	-0.0713367	-0.725923	0.203902	1.56667	0	0
1.8	-3.0748	0.91455	1.50032	0.602902	-0.567693	1.01161	0.975495	-0.0333217	-0.011213	0.281066	-0.313274	0	0	0.467007	0.0166012	-0.249961	0.0821448	-0.212173	0	0	0.744258	0.143016	0.24615	-0.533481	-0.216145	-0.0250284	0.367788	1.36622	0	0	-0.154799	-0.0693048	-0.726853	0.206988	1.56396	0	0
1.81	-3.08196	0.908493	1.52047	0.603733	-0.578577	1.00962	0.978045	-0.0449916	-0.0200996	0.222497	-0.32252	0	0	0.50675	0.0291432	-0.277169	0.128156	-0.20292	0	0	0.749889	0.13024	0.237556	-0.527987	-0.215629	-0.0118763	0.356098	1.37079	0	0	-0.152259	-0.0691735	-0.728088	0.209036	1.56	0	0
1.82	-3.07771	0.917562	1.51969	0.603818	-0.5902	1.00729	0.965297	-0.0425647	-0.0288183	0.168837	-0.324434	0	0	0.442275	0.0254904	-0.240384	0.0868503	-0.206891	0	0	0.733734	0.131173	0.233728	-0.525721	-0.219992	-0.00361633	0.358534	1.37628	0	0	-0.147777	-0.0642428	-0.730379	0.216601	1.55452	0	0
1.83	-3.07886	0.919081	1.52947	0.604153	-0.601639	1.00495	0.961055	-0.0468854	-0.0386242	0.120569	-0.32507	0	0	0.43202	0.0284039	-0.231078	0.0905854	-0.20374	0	0	0.728679	0.125229	0.227474	-0.522307	-0.221404	0.00402162	0.355089	1.38223	0	0	-0.144021	-0.0617722	-0.733156	0.221007	1.54767	0	0
1.84	-3.07945	0.919955	1.53806	0.604344	-0.613261	1.00258	0.957947	-0.0499798	-0.0480721	0.0779842	-0.324281	0	0	0.423046	0.0301961	-0.222466	0.096798	-0.19851	0	0	0.724475	0.120493	0.22132	-0.519527	-0.223053	0.010667	0.352559	1.38944	0	0	-0.140901	-0.0596283	-0.734351	0.224518	1.54228	0	0
1.85	-3.07899	0.920965	1.54463	0.604375	-0.625051	1.00023	0.955074	-0.0513636	-0.0561504	0.0411483	-0.322757	0	0	0.414334	0.0304336	-0.214681	0.104743	-0.192767	0	0	0.719902	0.117484	0.215316	-0.516968	-0.225293	0.0149993	0.351346	1.39705	0	0	-0.137976	-0.0576473	-0.733764	0.227223	1.53897	0	0
1.86	-3.07855	0.921024	1.55045	0.604228	-0.636975	0.997934	0.953748	-0.0518186	-0.0617819	0.0119605	-0.320915	0	0	0.408451	0.029954	-0.207997	0.116561	-0.18637	0	0	0.717322	0.115199	0.210418	-0.51509	-0.226783	0.0157746	0.350113	1.40308	0	0	-0.135475	-0.0563341	-0.732025	0.229306	1.53657	0	0
1.87	-3.07789	0.920298	1.55477	0.603959	-0.649033	0.995664	0.954697	-0.0510245	-0.0666551	0	-0.317231	0	0	0.403352	0.0285397	-0.203341	0.128589	-0.181645	0	0	0.716775	0.114116	0.207492	-0.514909	-0.228097	0.0142048	0.349891	1.40641	0	0	-0.133603	-0.0555467	-0.729173	0.231056	1.53598	0	0
1.88	-3.07734	0.918852	1.55726	0.603628	-0.6613	0.993568	0.956688	-0.0499931	-0.0641687	0	-0.32277	0	0	0.397599	0.0272641	-0.202661	0.14075	-0.177268	0	0	0.718076	0.114624	0.206169	-0.515598	-0.229471	0.0102264	0.349806	1.40734	0	0	-0.13272	-0.0550326	-0.72518	0.231883	1.53664	0	0
